<?xml version="1.0" standalone="no"?><!DOCTYPE svg PUBLIC "-//W3C//DTD SVG 1.1//EN" "http://www.w3.org/Graphics/SVG/1.1/DTD/svg11.dtd"><svg t="1654478299553" class="icon" viewBox="0 0 1024 1024" version="1.1" xmlns="http://www.w3.org/2000/svg" p-id="1208" xmlns:xlink="http://www.w3.org/1999/xlink" width="200" height="200"><defs><style type="text/css">@font-face { font-family: feedback-iconfont; src: url("//at.alicdn.com/t/font_1031158_u69w8yhxdu.woff2?t=1630033759944") format("woff2"), url("//at.alicdn.com/t/font_1031158_u69w8yhxdu.woff?t=1630033759944") format("woff"), url("//at.alicdn.com/t/font_1031158_u69w8yhxdu.ttf?t=1630033759944") format("truetype"); }
</style></defs><path d="M896 256v662.741333c-0.298667 34.944-4.266667 48.213333-11.392 61.610667-7.424 13.909333-18.346667 24.832-32.256 32.256l-1.536 0.810667c-13.184 6.784-27.050667 10.453333-62.122667 10.581333H237.397333c-38.058667 0-51.84-3.968-65.706666-11.392a77.525333 77.525333 0 0 1-32.298667-32.256l-0.853333-1.578667C131.84 965.632 128.170667 951.765333 128 916.693333V109.397333c0-38.058667 3.968-51.84 11.392-65.706666 7.424-13.952 18.346667-24.874667 32.256-32.298667l1.578667-0.853333C186.368 3.84 200.234667 0.170667 235.306667 0H640l256 256z" fill="#B7300B" p-id="1209"></path><path d="M640 0l256 256h-184.874667c-24.746667 0-33.706667-2.56-42.752-7.424a50.389333 50.389333 0 0 1-20.949333-20.949333l-0.725333-1.365334c-4.394667-8.618667-6.698667-17.877333-6.698667-41.386666V0z" fill="#952303" p-id="1210"></path><path d="M472.917333 699.733333v-90.24h36.48c75.818667 0 107.093333-25.258667 107.093334-95.445333 0-65.792-25.258667-92.672-107.093334-92.672H420.352V699.733333h52.565333z m30.08-132.736h-30.08v-103.082666h30.08c44.501333 0 59.733333 12.8 59.733334 50.944 0 40.490667-14.848 52.138667-59.733334 52.138666z" fill="#FFFFFF" p-id="1211"></path></svg>