<?xml version="1.0" standalone="no"?><!DOCTYPE svg PUBLIC "-//W3C//DTD SVG 1.1//EN" "http://www.w3.org/Graphics/SVG/1.1/DTD/svg11.dtd"><svg t="1654478330531" class="icon" viewBox="0 0 1024 1024" version="1.1" xmlns="http://www.w3.org/2000/svg" p-id="1941" xmlns:xlink="http://www.w3.org/1999/xlink" width="200" height="200"><defs><style type="text/css">@font-face { font-family: feedback-iconfont; src: url("//at.alicdn.com/t/font_1031158_u69w8yhxdu.woff2?t=1630033759944") format("woff2"), url("//at.alicdn.com/t/font_1031158_u69w8yhxdu.woff?t=1630033759944") format("woff"), url("//at.alicdn.com/t/font_1031158_u69w8yhxdu.ttf?t=1630033759944") format("truetype"); }
</style></defs><path d="M896 256v662.741333c-0.298667 34.944-4.266667 48.213333-11.392 61.610667-7.424 13.909333-18.346667 24.832-32.256 32.256l-1.536 0.810667c-13.184 6.784-27.050667 10.453333-62.122667 10.581333H237.397333c-38.058667 0-51.84-3.968-65.706666-11.392a77.525333 77.525333 0 0 1-32.298667-32.256l-0.853333-1.578667C131.84 965.632 128.170667 951.765333 128 916.693333V109.397333c0-38.058667 3.968-51.84 11.392-65.706666 7.424-13.952 18.346667-24.874667 32.256-32.298667l1.578667-0.853333C186.368 3.84 200.234667 0.170667 235.306667 0H640l256 256z" fill="#6E4DF0" p-id="1942"></path><path d="M640 0l256 256h-184.874667c-24.746667 0-33.706667-2.56-42.752-7.424a50.389333 50.389333 0 0 1-20.949333-20.949333l-0.725333-1.365334c-4.394667-8.618667-6.698667-17.877333-6.698667-41.386666V0z" fill="#000000" fill-opacity=".26" p-id="1943"></path><path d="M512 375.253333a21.333333 21.333333 0 0 1 1.28-7.125333l0.426667-0.981333a18.176 18.176 0 0 1 1.066666-2.261334l0.597334-0.938666a18.432 18.432 0 0 1 1.493333-2.048l0.597333-0.682667a19.626667 19.626667 0 0 1 5.888-4.608 22.357333 22.357333 0 0 1 5.632-2.048l0.853334-0.128a18.773333 18.773333 0 0 1 2.858666-0.298667H533.333333a19.2 19.2 0 0 1 2.944 0.170667L533.333333 354.133333a21.461333 21.461333 0 0 1 8.021334 1.578667l-2.133334-0.768 2.005334 0.682667 0.896 0.426666a22.528 22.528 0 0 1 2.133333 1.066667c18.432 8.661333 35.754667 29.354667 49.322667 40.746667 14.250667 11.989333 22.4 17.066667 30.72 19.882666 12.970667 4.352 34.816 4.352 65.578666 0-2.389333 15.914667-7.509333 28.8-15.36 38.656-11.818667 14.762667-34.901333 34.773333-63.701333 34.773334-16.554667 0-28.032-3.84-40.746667-12.117334-0.085333 0-9.813333-6.613333-12.629333-8.32l-1.28-0.768a76.373333 76.373333 0 0 0-1.450667-0.810666L554.666667 674.133333c-2.901333 45.141333-49.536 81.066667-106.666667 81.066667-58.88 0-106.666667-38.186667-106.666667-85.333333s47.786667-85.333333 106.666667-85.333334c24.021333 0 46.208 6.4 64.042667 17.066667z" fill="#FFFFFF" p-id="1944"></path></svg>